<?xml version="1.0" standalone="no"?>
<!DOCTYPE svg PUBLIC "-//W3C//DTD SVG 1.1//EN" "http://www.w3.org/Graphics/SVG/1.1/DTD/svg11.dtd"><svg t="1673024638398" class="icon" viewBox="0 0 1059 1024" version="1.1" xmlns="http://www.w3.org/2000/svg" p-id="12132" xmlns:xlink="http://www.w3.org/1999/xlink" width="206.8359375" height="200">
  <path d="M17.83 0h1024v1024H17.83z" fill="transparent" p-id="12133"></path>
  <path d="M1007.83 314v236a40 40 0 0 1-80 0V314a40 40 0 0 1 80 0z" fill="#505873" p-id="12134"></path>
  <path d="M1007.83 642v20a40 40 0 0 1-80 0v-20a40 40 0 0 1 80 0z" fill="#FF402A" p-id="12135"></path>
  <path d="M529.83 909.996c-168.034 0-309.996-77.39-309.996-168.996l0.056-3.128 0.05-1.44-0.052-1.436-0.054-2.992V370h619.994v362.004l-0.056 2.988-0.052 1.446 0.052 1.444 0.056 3.118c0 91.606-141.96 168.996-309.998 168.996z" fill="#FFFFFF" p-id="12136"></path>
  <path d="M529.83 869.996c152.058 0 269.998-69.344 269.968-130.688l-0.076-4.414 0.106-2.89V410H259.84l0.022 323.546 0.074 4.586-0.102 2.868c0 59.652 117.94 128.996 269.996 128.996m0 80c-193.304 0-349.996-93.566-349.996-208.996 0-1.52 0.028-3.032 0.08-4.546a122.274 122.274 0 0 1-0.08-4.45V330h699.994v402.004c0 1.488-0.028 2.976-0.08 4.45 0.052 1.514 0.08 3.026 0.08 4.546 0 115.43-156.702 208.996-349.998 208.996z" fill="#505873" p-id="12137"></path>
  <path d="M529.71 549.774l-16.484-7.458-432.66-195.71-80.566-36.444 80.568-36.446 432.658-195.71 16.486-7.458 16.486 7.458 432.658 195.71 80.568 36.446-80.568 36.444-432.66 195.71-16.484 7.458z" fill="#D8DDE3" p-id="12138"></path>
  <path d="M529.71 114.45L97.056 310.162l432.658 195.71 432.658-195.71-432.66-195.712m0-80a79.976 79.976 0 0 1 32.972 7.11l432.66 195.712a80 80 0 0 1 0 145.78l-432.66 195.71a79.976 79.976 0 0 1-65.94 0l-432.66-195.71a80 80 0 0 1 0-145.78L496.74 41.56a79.976 79.976 0 0 1 32.972-7.11z" fill="#505873" p-id="12139"></path>
</svg>